<svg width="634" height="240" viewBox="0 0 634 240" fill="none" xmlns="http://www.w3.org/2000/svg">
<path d="M3.8 160.4L44.6 60H5.8V40H68.2V59.6L27.4 160H68.2V180H3.8V160.4ZM80.6609 40H140.661V60H102.661V97H132.861V117H102.661V160H140.661V180H80.6609V40ZM153.317 40H180.917L202.317 123.8H202.717V40H222.317V180H199.717L173.317 77.8H172.917V180H153.317V40Z" fill="url(#paint0_linear_12_35)"/>
<path d="M481.458 40H514.058C525.391 40 533.658 42.6667 538.858 48C544.058 53.2 546.658 61.2667 546.658 72.2V80.8C546.658 95.3333 541.858 104.533 532.258 108.4V108.8C537.591 110.4 541.324 113.667 543.458 118.6C545.724 123.533 546.858 130.133 546.858 138.4V163C546.858 167 546.991 170.267 547.258 172.8C547.524 175.2 548.191 177.6 549.258 180H526.858C526.058 177.733 525.524 175.6 525.258 173.6C524.991 171.6 524.858 168 524.858 162.8V137.2C524.858 130.8 523.791 126.333 521.658 123.8C519.658 121.267 516.124 120 511.058 120H503.458V180H481.458V40ZM511.458 100C515.858 100 519.124 98.8667 521.258 96.6C523.524 94.3333 524.658 90.5333 524.658 85.2V74.4C524.658 69.3333 523.724 65.6667 521.858 63.4C520.124 61.1333 517.324 60 513.458 60H503.458V100H511.458ZM593.922 182C583.122 182 574.855 178.933 569.122 172.8C563.389 166.667 560.522 158 560.522 146.8V73.2C560.522 62 563.389 53.3333 569.122 47.2C574.855 41.0667 583.122 38 593.922 38C604.722 38 612.989 41.0667 618.722 47.2C624.455 53.3333 627.322 62 627.322 73.2V146.8C627.322 158 624.455 166.667 618.722 172.8C612.989 178.933 604.722 182 593.922 182ZM593.922 162C601.522 162 605.322 157.4 605.322 148.2V71.8C605.322 62.6 601.522 58 593.922 58C586.322 58 582.522 62.6 582.522 71.8V148.2C582.522 157.4 586.322 162 593.922 162Z" fill="url(#paint1_linear_12_35)"/>
<path d="M458 39.9999L458 56.8188M458 180.319L458 160.318M458 56.8188C434 49.0001 370.451 99.1629 355.5 110M458 56.8188L458 160.318M355.5 110C370.582 120.884 425.991 170.209 458 160.318M355.5 110C345.09 100.976 267.412 46.705 245.998 56.8189M355.5 110C339.359 121.399 265.455 174.79 246.252 163.819M245.998 40.0001L246.252 163.819M246.252 180.319L246.252 163.819" stroke="url(#paint2_linear_12_35)" stroke-width="20"/>
<path d="M265.5 84C280.3 84 307.5 102.667 314 110.5C310 116.5 281.5 136 265.5 136V84Z" fill="url(#paint3_linear_12_35)" stroke="url(#paint4_linear_12_35)" stroke-width="7"/>
<defs>
<linearGradient id="paint0_linear_12_35" x1="634" y1="120" x2="-1.23168e-06" y2="120" gradientUnits="userSpaceOnUse">
<stop stop-color="#4F4AEA"/>
<stop offset="1" stop-color="#00012C"/>
</linearGradient>
<linearGradient id="paint1_linear_12_35" x1="634" y1="120" x2="8.32502e-06" y2="120" gradientUnits="userSpaceOnUse">
<stop stop-color="#4F4AEA"/>
<stop offset="1" stop-color="#00012C"/>
</linearGradient>
<linearGradient id="paint2_linear_12_35" x1="635.5" y1="110" x2="-3.00004" y2="110" gradientUnits="userSpaceOnUse">
<stop stop-color="#4F4AEA"/>
<stop offset="1" stop-color="#00012C"/>
</linearGradient>
<linearGradient id="paint3_linear_12_35" x1="-1.00001" y1="118.5" x2="671.5" y2="110" gradientUnits="userSpaceOnUse">
<stop stop-color="#00012C"/>
<stop offset="1" stop-color="#4F4AEA"/>
</linearGradient>
<linearGradient id="paint4_linear_12_35" x1="630" y1="110" x2="-6.99999" y2="110" gradientUnits="userSpaceOnUse">
<stop stop-color="#4F4AEA"/>
<stop offset="1" stop-color="#00012C"/>
</linearGradient>
</defs>
</svg>
